            <svg width="16" height="17" viewBox="0 0 16 17" fill="none" xmlns="http://www.w3.org/2000/svg">
                <path d="M10.085 8.5L13.2122 5.37281C13.5959 4.98906 13.5959 4.36687 13.2122 3.98281L12.5172 3.28781C12.1334 2.90406 11.5113 2.90406 11.1272 3.28781L8 6.415L4.87281 3.28781C4.48906 2.90406 3.86688 2.90406 3.48281 3.28781L2.78781 3.98281C2.40406 4.36656 2.40406 4.98875 2.78781 5.37281L5.915 8.5L2.78781 11.6272C2.40406 12.0109 2.40406 12.6331 2.78781 13.0172L3.48281 13.7122C3.86656 14.0959 4.48906 14.0959 4.87281 13.7122L8 10.585L11.1272 13.7122C11.5109 14.0959 12.1334 14.0959 12.5172 13.7122L13.2122 13.0172C13.5959 12.6334 13.5959 12.0113 13.2122 11.6272L10.085 8.5Z" fill="#979797" />
            </svg>